<svg xmlns="http://www.w3.org/2000/svg" viewBox="0 0 1024 1024" width="1024" height="1024">
  <defs>
    <clipPath id="r">
      <rect x="96" y="96" width="832" height="832" rx="200" ry="200"/>
    </clipPath>
  </defs>
  <rect x="96" y="96" width="832" height="832" rx="200" ry="200" fill="#f2e9e1"/>
  <g clip-path="url(#r)">
    <path d="M96 96h416v416H96z" fill="#ea4335"/>
    <path d="M512 96h416v416H512z" fill="#fbbc05"/>
    <path d="M96 512h416v416H96z" fill="#1a73e8"/>
    <path d="M512 512h416v416H512z" fill="#34a853"/>
  </g>
  <g>
    <path d="M256 704l256-192 256 192" fill="none" stroke="#ea4335" stroke-width="40" stroke-linecap="round" stroke-linejoin="round"/>
    <rect x="224" y="320" width="576" height="448" rx="40" ry="40" fill="#f7f2ec"/>
    <path d="M256 704l256-192 256 192" fill="none" stroke="#f4b400" stroke-width="28" stroke-linecap="round" stroke-linejoin="round"/>
    <path d="M288 384l224 160 224-160" fill="none" stroke="#f4b400" stroke-width="28" stroke-linecap="round" stroke-linejoin="round"/>
    <path d="M432 440v-96h64v132c0 32-6 57-19 76-13 18-33 28-59 28-23 0-41-6-54-19-13-12-21-31-24-56l64-6c2 18 9 27 21 27 8 0 14-4 18-11 4-8 6-21 6-39z" fill="#ea4335"/>
  </g>
</svg>


